<svg width="432" height="213" viewBox="0 0 432 213" fill="none" xmlns="http://www.w3.org/2000/svg">
<path d="M223.941 141.692V121.591C223.941 118.955 223.941 118.296 223.063 117.966C220.536 116.758 218.669 115.55 218.669 113.024V109.399L228.774 110.058H231.301C235.475 110.058 253.488 109.509 261.616 109.179C263.154 109.069 264.252 108.96 264.582 108.96C269.854 108.301 270.843 108.081 272.271 108.96L274.687 110.278C277.653 111.925 277.872 112.474 277.103 114.232C276.005 116.868 275.456 117.307 271.612 117.307H234.047V125.765C239.978 125.765 252.28 125.435 258.76 125.216C260.957 125.106 262.385 124.996 262.824 124.996C268.426 124.337 269.854 124.117 271.612 124.996L273.808 126.094C276.884 127.632 277.103 128.181 276.335 130.268C275.346 132.904 274.358 133.014 270.293 133.014H234.047V139.934C234.047 141.362 234.596 141.582 235.584 141.582H252.609C258.651 141.582 265.131 140.703 267.657 140.154C269.525 139.824 270.623 139.824 272.49 140.593L276.005 142.021C279.3 143.339 279.52 143.559 278.861 146.085C278.202 148.502 276.664 149.161 274.028 149.161H233.607C229.763 149.161 223.941 148.392 223.941 141.692ZM243.712 157.838C242.614 157.508 241.516 156.74 241.735 154.982L241.955 151.138L252.17 151.907C255.795 152.236 256.014 154.653 256.014 156.08V162.231C268.426 161.792 275.346 161.353 284.573 160.474C289.405 160.035 292.261 159.705 293.689 160.804L298.193 164.428C300.06 165.966 299.84 167.284 299.071 168.712C298.083 170.579 297.204 171.019 296.106 170.799C295.227 170.579 291.053 169.81 288.637 169.591C282.595 169.041 265.241 169.151 250.413 169.591L211.31 171.019C208.564 171.128 203.402 171.348 201.315 170.799C200.106 170.469 199.447 169.261 199.777 167.504L200.985 161.243C207.136 162.451 221.635 162.671 224.381 162.671C232.838 162.671 239.868 162.671 246.019 162.561C246.019 159.705 246.019 158.497 243.712 157.838ZM278.531 181.563V199.357C278.531 204.959 272.82 210.89 270.623 212.538C269.634 213.307 268.097 213.087 268.097 212.098V187.275L255.685 187.494C254.696 187.494 245.14 187.824 242.834 187.934C232.509 188.263 227.896 188.812 226.138 188.812C224.93 188.812 222.404 189.032 220.646 187.934C219.768 187.494 219.768 186.176 219.877 184.968L220.427 179.037C226.248 179.806 233.827 180.135 242.285 180.135C249.095 180.135 254.367 179.916 255.795 179.916L275.785 179.256C276.774 179.256 277.323 179.586 277.763 179.916C278.422 180.465 278.531 181.124 278.531 181.563Z" fill="black"/>
<path d="M147.117 171.018L132.179 171.568C134.376 173.435 134.486 175.742 134.486 177.828V200.785C134.486 203.641 130.971 209.352 129.872 210.78C128.664 212.538 124.161 212.098 124.161 209.792V179.037C124.161 175.083 123.062 173.325 121.415 172.007H121.305L108.014 172.446C105.268 172.556 100.106 172.776 98.019 172.227C96.8108 171.897 96.1517 170.689 96.4813 168.932L97.6895 162.671C103.84 163.879 118.339 164.099 121.085 164.099C131.74 164.099 140.087 163.989 147.337 163.769C163.373 163.22 170.842 162.89 181.277 161.902C186.11 161.463 188.966 161.133 190.393 162.231L194.897 165.856C196.764 167.394 196.544 168.712 195.776 170.14C194.787 172.007 193.908 172.446 192.81 172.227C191.931 172.007 187.757 171.238 185.341 171.018C181.936 170.689 174.906 170.579 166.778 170.689C168.426 172.446 168.536 174.423 168.536 176.401V200.785C168.536 203.641 165.021 209.352 163.922 210.78C162.714 212.538 158.211 212.098 158.211 209.792V177.609C158.211 173.874 157.222 172.117 155.684 170.799L147.117 171.018ZM153.597 121.481C152.499 124.337 151.181 126.863 149.643 129.28L165.131 138.616C167.108 139.824 169.744 140.703 171.941 141.362C174.577 142.131 176.224 142.79 177.762 145.536L179.629 148.831C180.618 150.479 180.728 151.577 179.19 153.115C177.433 154.872 176.224 155.202 173.698 153.554L145.689 134.882C135.804 146.964 122.184 153.444 118.449 154.982C117.241 155.531 115.483 155.751 114.715 155.641C112.957 155.312 111.639 154.543 111.31 152.675C110.98 151.247 112.408 149.929 113.396 149.49C123.062 145.097 139.538 132.465 143.053 120.383C143.273 119.724 142.833 119.175 141.845 118.296L140.087 116.978C138.11 115.44 140.746 110.827 142.723 111.486L151.291 114.451C153.488 115.22 155.135 117.637 153.597 121.481Z" fill="black"/>
<path d="M68.869 210.341V116.209C68.869 113.024 67.7706 111.815 65.1344 110.058C63.1573 108.74 65.464 104.237 68.2099 105.445L75.679 108.74C79.1938 110.278 79.3037 111.156 79.3037 113.902V197.6C79.3037 203.201 73.592 209.133 71.3953 210.78C70.4067 211.549 68.869 211.329 68.869 210.341ZM0 154.323C0 140.703 9.55598 131.257 24.7137 131.257C39.4322 131.257 49.2078 140.703 49.2078 154.323C49.2078 168.053 39.2125 177.389 24.7137 177.389C10.215 177.389 0 168.053 0 154.323ZM24.7137 139.824C15.3774 139.824 10.4347 145.975 10.4347 154.323C10.4347 162.122 15.3774 168.822 24.7137 168.822C34.05 168.822 38.7731 162.122 38.7731 154.323C38.7731 145.975 34.05 139.824 24.7137 139.824Z" fill="black"/>
<path d="M294.488 10.0597C314.518 1.55646 337.658 -0.73379 357.744 0.191592C377.694 1.11072 395.419 5.24334 404.538 10.2609C413.084 14.9637 424.302 23.3346 429.003 35.4924C433.943 48.272 431.154 63.6746 414.787 80.8401C394.513 102.104 372.561 104.563 358.07 101.712C357.817 101.664 356.887 101.736 355.679 102.624C354.485 103.502 353.966 104.492 353.886 104.94C351.949 115.855 344.58 129.792 326.642 142.392C322.634 145.206 318.17 143.938 315.5 141.56C312.902 139.245 311.196 135.281 312.382 131.138C314.545 123.586 315.223 115.553 312.944 108.768C310.765 102.276 305.683 96.3116 294.898 92.9126C273.127 86.0504 261.949 69.9403 262.213 52.6979C262.474 35.6482 273.907 18.7968 294.488 10.0597ZM357.325 9.33983C338.091 8.45373 316.426 10.6925 298.051 18.4925C280.228 26.0587 271.544 40.0016 271.347 52.8409C271.154 65.4873 279.18 78.3617 297.641 84.1801C310.937 88.3712 318.403 96.3188 321.602 105.848C324.703 115.085 323.593 125.185 321.165 133.664C321.129 133.789 321.122 133.941 321.187 134.138C321.26 134.355 321.404 134.566 321.571 134.715C321.582 134.724 321.596 134.729 321.606 134.737C337.693 123.37 343.44 111.507 344.889 103.34C345.501 99.8912 347.829 97.0399 350.273 95.2421C352.702 93.4561 356.208 92.0118 359.832 92.7248C371.533 95.0268 390.243 93.3277 408.182 74.5132C422.903 59.0734 423.771 47.3059 420.483 38.8011C416.954 29.674 408.057 22.6416 400.144 18.2869C392.803 14.2472 376.694 10.2322 357.325 9.33983Z" fill="black"/>
<path d="M323.34 23.7301C325.503 22.3644 328.391 22.9703 329.79 25.0825C333.852 31.2157 339.621 47.0731 329.79 61.9175C328.391 64.0297 325.503 64.6356 323.34 63.2699C321.178 61.9036 320.557 59.083 321.956 56.9706C329.019 46.3054 324.934 34.5261 321.956 30.0294C320.557 27.917 321.178 25.0964 323.34 23.7301Z" fill="black"/>
<path d="M360.188 23.7301C362.196 22.3644 364.878 22.9703 366.177 25.0825C369.949 31.2157 375.306 47.0731 366.177 61.9175C364.878 64.0297 362.196 64.6356 360.188 63.2699C358.18 61.9036 357.604 59.083 358.902 56.9706C365.461 46.3054 361.668 34.5261 358.902 30.0294C357.604 27.917 358.18 25.0964 360.188 23.7301Z" fill="black"/>
</svg>
